<?xml version="1.0" encoding="iso-8859-1"?>
<!-- Generator: Adobe Illustrator 19.0.0, SVG Export Plug-In . SVG Version: 6.00 Build 0)  -->
<svg version="1.1" id="Layer_1" xmlns="http://www.w3.org/2000/svg" xmlns:xlink="http://www.w3.org/1999/xlink" x="0px" y="0px"
	 viewBox="0 0 512 512" style="enable-background:new 0 0 512 512;" xml:space="preserve">
<g>
	<rect x="395.372" y="393.648" style="fill:#666666;" width="48.01" height="105.487"/>
	<polygon style="fill:#666666;" points="425.385,59.176 425.385,105.487 395.372,105.487 116.628,105.487 86.615,105.487 
		86.615,59.176 116.628,59.176 395.372,59.176 	"/>
</g>
<polygon style="fill:#B3B3B3;" points="395.372,393.648 395.372,499.136 116.628,499.136 116.628,393.648 116.628,105.487 
	395.372,105.487 "/>
<polygon style="fill:#DBB67E;" points="356.779,12.864 395.372,59.176 116.628,59.176 155.221,12.864 "/>
<rect x="68.618" y="393.648" style="fill:#666666;" width="48.01" height="105.487"/>
<polygon style="fill:#B3B3B3;" points="395.372,59.176 116.628,59.176 155.221,12.864 356.779,12.864 "/>
<path d="M443.382,380.784h-35.145V118.352h17.148c7.104,0,12.864-5.759,12.864-12.864V59.176c0-7.105-5.761-12.864-12.864-12.864
	h-23.987L366.661,4.629C364.217,1.696,360.597,0,356.779,0H155.221c-3.818,0-7.438,1.696-9.884,4.629l-34.735,41.683H86.615
	c-7.104,0-12.864,5.759-12.864,12.864v46.312c0,7.105,5.761,12.864,12.864,12.864h17.148v262.432H68.618
	c-7.104,0-12.864,5.759-12.864,12.864v105.487c0,7.105,5.761,12.864,12.864,12.864h48.01h278.744h48.01
	c7.104,0,12.864-5.759,12.864-12.864V393.648C456.246,386.543,450.487,380.784,443.382,380.784z M161.247,25.729h189.508
	l17.152,20.583H144.095L161.247,25.729z M99.48,72.04h17.148h278.744h17.148v20.583H99.48V72.04z M382.508,118.352v275.296v92.623
	H129.492v-92.623V118.352H382.508z M81.483,406.513h22.281v79.759H81.483V406.513z M430.517,486.271h-22.281v-79.759h22.281V486.271
	z"/>
<path d="M256,446.07c7.104,0,12.864-5.759,12.864-12.864V220.408c0-7.105-5.761-12.864-12.864-12.864
	c-7.104,0-12.864,5.759-12.864,12.864v212.798C243.136,440.311,248.896,446.07,256,446.07z"/>
<path d="M256,190.874c7.104,0,12.864-5.759,12.864-12.864v-6.593c0-7.105-5.761-12.864-12.864-12.864
	c-7.104,0-12.864,5.759-12.864,12.864v6.593C243.136,185.115,248.896,190.874,256,190.874z"/>
<path d="M321.608,446.07c7.104,0,12.864-5.759,12.864-12.864V171.417c0-7.105-5.761-12.864-12.864-12.864
	c-7.104,0-12.864,5.759-12.864,12.864v261.789C308.744,440.311,314.504,446.07,321.608,446.07z"/>
<path d="M190.392,446.07c7.104,0,12.864-5.759,12.864-12.864V171.417c0-7.105-5.761-12.864-12.864-12.864
	s-12.864,5.759-12.864,12.864v261.789C177.528,440.311,183.288,446.07,190.392,446.07z"/>
<g>
</g>
<g>
</g>
<g>
</g>
<g>
</g>
<g>
</g>
<g>
</g>
<g>
</g>
<g>
</g>
<g>
</g>
<g>
</g>
<g>
</g>
<g>
</g>
<g>
</g>
<g>
</g>
<g>
</g>
</svg>
